<svg width="215" height="120" viewBox="0 0 215 120" fill="none" xmlns="http://www.w3.org/2000/svg">
<path fill-rule="evenodd" clip-rule="evenodd" d="M105.33 10.0742C105.631 13.487 104.938 17.8846 103.335 22.7313C101.133 29.3875 101.476 33.6962 104.557 38.1162C105.098 38.8918 105.825 39.71 106.173 39.9347C106.684 40.2649 106.623 39.8985 105.855 38.0268C105.06 36.0867 104.905 35.0907 104.905 31.8982C104.905 28.5189 105.046 27.7182 106.145 24.8402C106.893 22.8818 107.461 20.5798 107.577 19.0374C107.791 16.1862 107.04 11.9298 105.846 9.22881L105.108 7.55859L105.33 10.0742ZM100.212 16.5437C100.074 18.7541 99.6628 20.6558 98.8594 22.7992C97.1549 27.3478 97.1456 29.367 98.8154 32.5448C99.4366 33.7271 100.012 34.6131 100.095 34.5135C100.177 34.4143 99.9868 33.4357 99.6717 32.3397C98.9583 29.8576 99.2067 27.2982 100.439 24.4372C101.764 21.3618 101.934 19.2269 101.107 16.0482L100.41 13.3673L100.212 16.5437ZM110.409 16.6357C110.373 18.8488 110.061 20.5101 109.206 23.0485C108.571 24.9323 108.052 27.1311 108.052 27.934C108.052 29.6311 109.224 32.7749 110.291 33.9402C111.025 34.7418 111.026 34.736 110.467 33.1198C109.691 30.8799 109.775 27.6052 110.667 25.2303C111.963 21.7813 112.171 19.801 111.542 16.8846C110.754 13.2292 110.467 13.1662 110.409 16.6357ZM96.0197 44.9346C84.2082 46.759 78.799 51.8233 84.4566 55.7602C93.7591 62.2337 120.758 61.4911 126.841 54.5944C127.732 53.5837 127.911 52.044 127.298 50.6615C126.303 48.418 121.034 46.1294 114.474 45.0919C109.873 44.3636 100.246 44.2818 96.0197 44.9346ZM94.5014 51.6436C94.3952 51.851 93.902 51.8974 93.4055 51.7469C92.855 51.5802 92.5025 51.6669 92.5025 51.9689C92.5025 52.241 92.6554 52.464 92.8424 52.464C93.0294 52.464 93.4359 52.5815 93.7454 52.7245C94.0671 52.8737 94.5906 52.5869 94.9686 52.0543C95.7995 50.8832 96.3563 50.8411 95.8476 51.9877C95.3789 53.0449 95.3659 53.3576 95.7913 53.3576C95.9712 53.3576 96.2056 52.9555 96.3122 52.464C96.4185 51.9725 96.6828 51.5704 96.899 51.5704C97.1153 51.5704 97.1852 51.9068 97.0545 52.3183C96.8713 52.8947 96.9657 52.9971 97.4666 52.7652C97.8243 52.5994 98.2697 52.464 98.4566 52.464C98.6436 52.464 98.7965 52.1624 98.7965 51.7938C98.7965 51.4251 98.9731 51.1235 99.1886 51.1235C99.404 51.1235 99.4929 51.2947 99.3859 51.5042C99.2785 51.7133 101.809 51.9216 105.01 51.9662C112.235 52.0677 116.733 52.6807 120.071 54.018C122.958 55.1749 123.811 55.0198 125.546 53.0221C126.106 52.3773 126.564 52.0538 126.564 52.3027C126.564 52.9354 125.123 54.4559 123.704 55.3219C121.934 56.4014 116.924 57.715 112.31 58.3093C103.298 59.4692 87.3192 57.5077 87.3192 55.241C87.3192 54.7486 90.2204 51.5704 90.6699 51.5704C90.8505 51.5704 90.9024 51.872 90.7854 52.2406C90.6469 52.6758 90.7946 52.9108 91.2067 52.9108C91.6058 52.9108 91.7657 52.6731 91.6373 52.2696C91.5251 51.9166 91.6325 51.5346 91.8753 51.4207C92.6254 51.0681 94.7054 51.2451 94.5014 51.6436ZM92.0057 53.2437C91.7409 53.7602 92.8191 55.3625 93.1467 54.9394C93.3015 54.7392 93.2189 54.4854 92.9631 54.3755C92.7073 54.2651 92.5851 54.0051 92.6913 53.7973C92.7976 53.5895 92.7269 53.3018 92.534 53.1579C92.3411 53.014 92.1034 53.0525 92.0057 53.2437ZM89.263 53.9162C89.4962 54.7615 90.6513 54.8817 90.6513 54.0605C90.6513 53.6463 90.3348 53.3576 89.8801 53.3576C89.4277 53.3576 89.1723 53.5886 89.263 53.9162ZM93.6132 53.8045C93.6132 54.0502 93.7798 54.2513 93.9835 54.2513C94.1871 54.2513 94.3537 54.0502 94.3537 53.8045C94.3537 53.5587 94.1871 53.3576 93.9835 53.3576C93.7798 53.3576 93.6132 53.5587 93.6132 53.8045ZM88.2607 55.1141C88.1434 55.3429 88.2171 55.6561 88.424 55.8107C88.8657 56.14 89.5406 55.7218 89.5406 55.1186C89.5406 54.5748 88.5384 54.5712 88.2607 55.1141ZM91.0216 55.3312C91.0216 55.72 91.2852 56.0386 91.6077 56.0386C91.9301 56.0386 92.1282 55.8 92.0475 55.5082C91.8187 54.6793 91.0216 54.5422 91.0216 55.3312ZM134.573 56.0019C135.689 56.8232 136.931 58.5421 136.931 59.2659C136.931 60.0059 135.991 59.555 134.912 58.2977C133.868 57.0801 130.939 55.8218 130.47 56.3889C129.908 57.0667 130.361 57.8258 131.327 57.8258C132.871 57.8258 134.339 59.3808 134.339 61.0152C134.339 61.7512 134.159 62.7587 133.939 63.2551C133.436 64.3887 130.827 65.8458 129.277 65.8588C128.249 65.8673 128.046 66.0782 127.652 67.5442C125.946 73.8957 121.323 80.8398 117.169 83.2919C113.993 85.1659 109.644 86.4143 105.09 86.7583L101.203 87.0523L103.424 87.433C107.687 88.1631 114.309 86.9464 117.771 84.7972C119.083 83.9827 119.072 84.5872 117.747 86.1203C115.598 88.6041 109.009 90.2971 103.089 89.8865C100.483 89.706 100.015 89.7538 101.018 90.0983C101.764 90.3548 104.515 90.4433 107.497 90.3074C114.913 89.9692 119.372 88.2641 120.637 85.2829C120.944 84.5577 121.203 83.9228 121.211 83.8719C121.257 83.5957 125.444 85.0376 126.46 85.6793C134.205 90.567 115.384 97.381 98.4648 95.8145C87.4621 94.7962 80.0297 92.0134 79.0156 88.5331C78.7124 87.492 78.8164 87.1238 79.7513 85.9357C81.0445 84.2919 83.2463 82.8929 86.695 81.5234C88.0827 80.9725 89.1593 80.4515 89.0882 80.3657C89.0168 80.2794 87.6636 80.6096 86.0812 81.0989C76.6954 84.0005 73.8216 89.0085 79.3133 92.8923C80.1856 93.5093 81.8557 94.411 83.0245 94.8967C84.1937 95.382 85.6458 96.2823 86.2515 96.8976C87.6354 98.3028 91.2415 99.6616 96.0042 100.572C100.711 101.473 112.712 101.176 116.938 100.055C119.956 99.2541 123.351 97.5678 124.527 96.285C124.935 95.8399 125.761 95.3346 126.364 95.1621C129.805 94.1755 133.598 90.6573 133.598 88.4518C133.598 86.0734 130.541 83.4773 125.638 81.6923C124.417 81.2472 123.362 80.8397 123.295 80.7866C123.227 80.7334 123.958 79.5248 124.92 78.0998C125.881 76.6754 127.224 74.1097 127.904 72.398L129.139 69.2854L131.463 68.5799C134.308 67.7153 135.976 66.3391 136.939 64.0617C138.293 60.8593 137.51 57.3321 135.114 55.837C133.554 54.8634 133.181 54.9774 134.573 56.0019Z" fill="#4D1200"/>
</svg>
